<svg width="387" height="387" viewBox="0 0 387 387" fill="none" xmlns="http://www.w3.org/2000/svg">
<g filter="url(#filter0_d)">
<path d="M273.6 216.2H246.9V162.8H273.6C303.09 162.8 327 138.89 327 109.4C327 79.9098 303.09 56 273.6 56C244.107 56 220.2 79.9098 220.2 109.4V136.1H166.8V109.4C166.8 79.9098 142.89 56 113.4 56C83.9098 56 60 79.9098 60 109.4C60 138.89 83.9098 162.8 113.4 162.8H140.1V216.2H113.4C83.9098 216.2 60 240.11 60 269.6C60 299.09 83.9098 323 113.4 323C142.893 323 166.8 299.09 166.8 269.6V242.9H220.2V269.533C220.2 269.56 220.197 269.58 220.197 269.6C220.197 299.09 244.106 323 273.597 323C303.087 323 326.997 299.09 326.997 269.6C326.997 240.11 303.09 216.207 273.6 216.2ZM273.6 82.7C288.345 82.7 300.3 94.6549 300.3 109.4C300.3 124.145 288.345 136.1 273.6 136.1H246.9V109.4C246.9 94.6549 258.855 82.7 273.6 82.7ZM86.7 109.4C86.7 94.6549 98.6549 82.7 113.4 82.7C128.145 82.7 140.1 94.6549 140.1 109.4V136.1H113.4C98.6549 136.1 86.7 124.142 86.7 109.4ZM113.4 296.3C98.6549 296.3 86.7 284.345 86.7 269.6C86.7 254.855 98.6549 242.9 113.4 242.9H140.1V269.6C140.1 284.345 128.145 296.3 113.4 296.3ZM166.8 216.2V162.8H220.2V216.2H166.8ZM273.6 296.3C258.855 296.3 246.9 284.345 246.9 269.6V242.9H273.597C288.342 242.9 300.297 254.855 300.297 269.6C300.297 284.345 288.345 296.3 273.6 296.3Z" fill="white"/>
</g>
<defs>
<filter id="filter0_d" x="0" y="0" width="387" height="387" filterUnits="userSpaceOnUse" color-interpolation-filters="sRGB">
<feFlood flood-opacity="0" result="BackgroundImageFix"/>
<feColorMatrix in="SourceAlpha" type="matrix" values="0 0 0 0 0 0 0 0 0 0 0 0 0 0 0 0 0 0 127 0"/>
<feOffset dy="4"/>
<feGaussianBlur stdDeviation="30"/>
<feColorMatrix type="matrix" values="0 0 0 0 0 0 0 0 0 0 0 0 0 0 0 0 0 0 0.25 0"/>
<feBlend mode="normal" in2="BackgroundImageFix" result="effect1_dropShadow"/>
<feBlend mode="normal" in="SourceGraphic" in2="effect1_dropShadow" result="shape"/>
</filter>
</defs>
</svg>
